<?xml version="1.0" encoding="UTF-8" standalone="no"?>
<!DOCTYPE svg PUBLIC "-//W3C//DTD SVG 1.1//EN" "http://www.w3.org/Graphics/SVG/1.1/DTD/svg11.dtd">
<!-- Created with Vectornator (http://vectornator.io/) -->
<svg height="841.0mm" stroke-miterlimit="10" style="fill-rule:nonzero;clip-rule:evenodd;stroke-linecap:round;stroke-linejoin:round;" version="1.1" viewBox="0 0 3370.82 2384.24" width="1189.0mm" xml:space="preserve" xmlns="http://www.w3.org/2000/svg" xmlns:xlink="http://www.w3.org/1999/xlink">
<defs>
<filter color-interpolation-filters="sRGB" filterUnits="userSpaceOnUse" height="1887.06" id="Filter" width="1918.16" x="726.328" y="248.585">
<feGaussianBlur in="SourceGraphic" result="Blur" stdDeviation="2.05451"/>
</filter>
</defs>
<g id="Layer-1">
<g filter="url(#Filter)" opacity="0.998077">
<path d="M1689.73 1095.24C1689.73 1081.6 1697.04 1069 1708.88 1062.24L2100.85 838.387C2126.18 823.919 2157.7 842.212 2157.7 871.385L2157.7 1274.44C2157.7 1288.1 2150.36 1300.71 2138.49 1307.46L1746.52 1530.59C1721.19 1545.01 1689.73 1526.72 1689.73 1497.57L1689.73 1095.24Z" fill="#303030" fill-rule="nonzero" opacity="1" stroke="#dddddd" stroke-linecap="butt" stroke-linejoin="round" stroke-width="34"/>
<path d="M1708.58 1062.41C1696.9 1069.08 1682.56 1069.08 1670.87 1062.4L1292.5 846.02C1266.9 831.381 1267 794.431 1292.68 779.938L1670.78 566.578C1682.08 560.199 1695.85 560.031 1707.31 566.13L2096.89 773.547C2123.29 787.606 2123.85 825.252 2097.87 840.087L1708.58 1062.41Z" fill="#303030" fill-rule="nonzero" opacity="1" stroke="#dddddd" stroke-linecap="butt" stroke-linejoin="round" stroke-width="34"/>
<path d="M2157.7 827.728C2157.7 814.224 2164.86 801.735 2176.52 794.92L2565.17 567.758C2590.51 552.951 2622.35 571.222 2622.35 600.565L2622.35 1000.81C2622.35 1014.28 2615.23 1026.74 2603.62 1033.56L2214.97 1262.26C2189.64 1277.17 2157.7 1258.9 2157.7 1229.51L2157.7 827.728Z" fill="#303030" fill-rule="nonzero" opacity="1" stroke="#dddddd" stroke-linecap="butt" stroke-linejoin="round" stroke-width="34"/>
<path d="M2565.38 567.637C2590.67 552.857 2590.43 516.232 2564.96 501.779L2177.13 281.75C2165.14 274.943 2150.39 275.172 2138.61 282.35L1745.83 521.664C1720.69 536.979 1721.76 573.825 1747.74 587.657L2138.97 795.955C2150.61 802.151 2164.63 801.872 2176.01 795.22L2565.38 567.637Z" fill="#303030" fill-rule="nonzero" opacity="1" stroke="#dddddd" stroke-linecap="butt" stroke-linejoin="round" stroke-width="34"/>
<path d="M2100.87 1328.38C2126.2 1313.93 2157.7 1332.22 2157.7 1361.39L2157.7 1820.12C2157.7 1833.67 2150.48 1846.2 2138.77 1852.99L1746.79 2080.4C1721.46 2095.1 1689.73 2076.82 1689.73 2047.53L1689.73 1584.99C1689.73 1571.35 1697.04 1558.75 1708.9 1551.99L2100.87 1328.38Z" fill="#303030" fill-rule="nonzero" opacity="1" stroke="#dddddd" stroke-linecap="butt" stroke-linejoin="round" stroke-width="34"/>
<path d="M1689.69 1584.73C1689.71 1571.22 1682.56 1558.72 1670.91 1551.89L1291.65 1329.51C1266.32 1314.66 1234.43 1332.93 1234.43 1362.29L1234.43 1825.33C1234.43 1838.81 1241.58 1851.29 1253.21 1858.11L1631.8 2080.03C1657.11 2094.87 1688.97 2076.64 1689.02 2047.3L1689.69 1584.73Z" fill="#303030" fill-rule="nonzero" opacity="1" stroke="#dddddd" stroke-linecap="butt" stroke-linejoin="round" stroke-width="34"/>
<path d="M1253.18 1306.98C1241.56 1300.15 1234.43 1287.69 1234.43 1274.21L1234.43 872.351C1234.43 842.964 1266.36 824.699 1291.69 839.595L1670.18 1062.16C1681.79 1068.99 1688.92 1081.45 1688.92 1094.91L1688.92 1496.53C1688.92 1525.91 1657.01 1544.18 1631.67 1529.3L1253.18 1306.98Z" fill="#303030" fill-rule="nonzero" opacity="1" stroke="#dddddd" stroke-linecap="butt" stroke-linejoin="round" stroke-width="34"/>
<path d="M1234.43 836.703C1234.43 823.124 1227.18 810.577 1215.42 803.79L805.457 567.226C780.124 552.608 748.465 570.891 748.465 600.14L748.465 999.401C748.465 1013.11 755.846 1025.75 767.782 1032.49L1177.74 1263.96C1203.08 1278.26 1234.43 1259.96 1234.43 1230.87L1234.43 836.703Z" fill="#303030" fill-rule="nonzero" opacity="1" stroke="#dddddd" stroke-linecap="butt" stroke-linejoin="round" stroke-width="34"/>
<path d="M806.29 566.656C780.673 552.339 780.261 515.623 805.552 500.737L1177.18 281.983C1189 275.025 1203.65 274.977 1215.52 281.857L1630.67 522.566C1656.26 537.405 1655.83 574.508 1629.9 588.748L1252.88 795.79C1241.4 802.094 1227.48 802.042 1216.05 795.653L806.29 566.656Z" fill="#303030" fill-rule="nonzero" opacity="1" stroke="#dddddd" stroke-linecap="butt" stroke-linejoin="round" stroke-width="34"/>
</g>
</g>
</svg>
